<svg width="2000" height="100" xmlns="http://www.w3.org/2000/svg">

 <g>
  <title>Layer 1</title>
  <rect id="svg_10" height="38.75" width="95" y="-0.37501" x="-1.74997" stroke="#000" fill="#153723"/>
  <rect id="svg_11" height="31.875" width="48.75" y="28.99999" x="4.50003" stroke="#000" fill="#A0D58A"/>
  <rect id="svg_12" height="68.75" width="43.75" y="33.37499" x="-2.99997" stroke="#000" fill="#C48157"/>
  <rect id="svg_13" height="41.25" width="92.5" y="60.87499" x="4.50003" stroke="#000" fill="#6F5C2A"/>
  <rect id="svg_14" height="50" width="69.375" y="24.62499" x="47.62503" stroke="#000" fill="#A98E49"/>
  <rect id="svg_15" height="34.375" width="140.625" y="-1.00001" x="87.00003" stroke="#000" fill="#E6C36A"/>
  <rect id="svg_16" height="37.5" width="92.5" y="28.37499" x="94.50003" stroke="#000" fill="#A98E49"/>
  <rect id="svg_17" height="49.375" width="116.25" y="55.24999" x="82.00003" stroke="#000" fill="#153723"/>
  <rect id="svg_18" height="48.125" width="89.375" y="20.87499" x="180.12503" stroke="#000" fill="#0E353B"/>
  <rect id="svg_19" height="33.125" width="114.375" y="-0.37501" x="218.87503" stroke="#000" fill="#8391AE"/>
  <rect id="svg_20" height="47.5" width="65" y="56.49999" x="166.37503" stroke="#000" fill="#273141"/>
  <rect id="svg_21" height="46.25" width="61.875" y="32.12499" x="228.25003" stroke="#000" fill="#559E84"/>
  <rect id="svg_22" height="78.125" width="91.25" y="22.74999" x="292.00003" stroke="#000" fill="#3E2A3C"/>
  <rect id="svg_23" height="43.75" width="58.125" y="25.87499" x="268.87503" stroke="#000" fill="#74556D"/>
  <rect id="svg_24" height="40.625" width="63.125" y="67.74999" x="218.87503" stroke="#000" fill="#A8FFE9"/>
  <rect id="svg_25" height="45.625" width="58.75" y="62.74999" x="253.87503" stroke="#000" fill="#559E84"/>
  <rect id="svg_27" height="35.625" width="73.75" y="-4.12501" x="328.25003" stroke="#000" fill="#3E2A3C"/>
  <rect id="svg_28" height="43.125" width="58.75" y="25.24999" x="375.12503" stroke="#000" fill="#FFAAB8"/>
  <rect id="svg_29" height="51.25" width="88.75" y="57.74999" x="363.25003" stroke="#000" fill="#C97A86"/>
  <rect id="svg_30" height="39.375" width="37.5" y="-1.62501" x="402.00002" stroke="#000" fill="#BF7E96"/>
  <rect id="svg_31" height="34.375" width="46.25" y="28.99999" x="418.25002" stroke="#000" fill="#306856"/>
  <rect id="svg_32" height="35" width="50.625" y="-2.25001" x="434.50002" stroke="#000" fill="#529D94"/>
  <rect id="svg_33" height="56.875" width="42.5" y="51.49999" x="448.25002" stroke="#000" fill="#5B9BA2"/>
  <rect id="svg_34" height="41.25" width="39.375" y="20.87499" x="462.62502" stroke="#000" fill="#3B2F0E"/>
  <rect id="svg_35" height="31.875" width="27.5" y="-1.62501" x="482.00002" stroke="#000" fill="#645A73"/>
  <rect id="svg_36" height="43.125" width="53.125" y="42.12499" x="481.37502" stroke="#000" fill="#33666C"/>
  <rect id="svg_37" height="26.25" width="74.375" y="75.87499" x="462.00002" stroke="#000" fill="#8391AE"/>
  <rect id="svg_38" height="44.375" width="50" y="12.12499" x="497.00002" stroke="#000" fill="#619E73"/>
  <rect id="svg_39" height="29.375" width="65.625" y="-6.00001" x="508.87502" stroke="#000" fill="#9A8AAB"/>
  <rect id="svg_40" height="49.375" width="69.375" y="18.99999" x="533.49996" stroke="#000" fill="#535F75"/>
  <rect id="svg_41" height="43.125" width="49.375" y="60.87499" x="522.24996" stroke="#000" fill="#426373"/>
  <rect id="svg_42" height="56.875" width="61.875" y="53.99999" x="569.12496" stroke="#000" fill="#E6C36A"/>
  <rect id="svg_43" height="28.125" width="49.375" y="-1.00001" x="569.12496" stroke="#000" fill="#A98E49"/>
  <rect id="svg_44" height="41.875" width="38.75" y="17.12499" x="598.49996" stroke="#000" fill="#EEFF9F"/>
  <rect id="svg_45" height="33.125" width="50" y="-4.75001" x="617.87496" stroke="#000" fill="#D1FFB4"/>
  <rect id="svg_46" height="43.75" width="43.125" y="44.62499" x="628.49996" stroke="#000" fill="#3E2A3C"/>
  <rect id="svg_47" height="34.375" width="41.875" y="16.49999" x="634.12496" stroke="#000" fill="#C97A86"/>
  <rect id="svg_48" height="33.125" width="67.5" y="75.87499" x="615.99996" stroke="#000" fill="#306856"/>
  <rect id="svg_49" height="31.875" width="70" y="-2.25001" x="658.49996" stroke="#000" fill="#A0D58A"/>
  <rect id="svg_50" height="36.875" width="75" y="21.49999" x="669.12496" stroke="#000" fill="#3E2A3C"/>
  <rect id="svg_51" height="25" width="65" y="48.37499" x="649.74996" stroke="#000" fill="#84D3DB"/>
  <rect id="svg_52" height="41.875" width="66.25" y="61.49999" x="669.74996" stroke="#000" fill="#EDFFFF"/>
  <rect id="svg_53" height="33.75" width="43.125" y="39.62499" x="715.99996" stroke="#000" fill="#884D58"/>
  <rect id="svg_54" height="34.375" width="62.5" y="1.49999" x="703.49996" stroke="#000" fill="#4D2425"/>
  <rect id="svg_55" height="16.25" width="40" y="47.74999" x="698.49996" stroke="#000" fill="#AF84A3"/>
  <rect id="svg_56" height="33.75" width="64.375" y="-7.87501" x="719.12496" stroke="#000" fill="#CFCA6D"/>
  <rect id="svg_57" height="50.625" width="112.5" y="14.62499" x="735.99996" stroke="#000" fill="#7B572D"/>
  <rect id="svg_58" height="34.375" width="59.375" y="-8.50001" x="773.49996" stroke="#000" fill="#FFB27C"/>
  <rect id="svg_59" height="58.75" width="76.25" y="52.74999" x="717.24996" stroke="#000" fill="#306856"/>
  <rect id="svg_60" height="61.25" width="71.25" y="48.99999" x="807.87496" stroke="#000" fill="#7AD6CA"/>
  <rect id="svg_61" height="43.75" width="55" y="59.62499" x="778.49996" stroke="#000" fill="#A8FFE9"/>
  <rect id="svg_62" height="40.625" width="71.875" y="0.87499" x="836.00003" stroke="#000" fill="#306856"/>
  <rect id="svg_63" height="56.875" width="85.625" y="-11.62501" x="804.75003" stroke="#000" fill="#EEFF9F"/>
  <rect id="svg_64" height="58.75" width="67.5" y="25.87499" x="838.50003" stroke="#000" fill="#EEFF9F"/>
  <rect id="svg_65" height="53.75" width="76.25" y="-8.50001" x="902.87503" stroke="#000" fill="#8B4D4B"/>
  <rect stroke="#000" id="svg_66" height="35.625" width="0" y="43.37499" x="893.50003" fill="#D3BEE7"/>
  <rect id="svg_67" height="68.75" width="72.5" y="37.12499" x="885.37503" stroke="#000" fill="#559E84"/>
  <rect id="svg_68" height="50" width="63.75" y="65.87499" x="863.50003" stroke="#000" fill="#3B2F0E"/>
  <rect id="svg_69" height="45" width="67.5" y="25.87499" x="946.62503" stroke="#000" fill="#5B9BA2"/>
  <rect id="svg_70" height="58.75" width="101.25" y="53.99999" x="934.75003" stroke="#000" fill="#8391AE"/>
  <rect id="svg_71" height="48.125" width="101.875" y="-6.00001" x="961.00003" stroke="#000" fill="#FFE7A2"/>
  <rect id="svg_72" height="46.25" width="77.5" y="20.87499" x="988.50003" stroke="#000" fill="#422C10"/>
  <rect id="svg_73" height="60" width="123.125" y="-6.62501" x="1053.50003" stroke="#000" fill="#74556D"/>
  <rect id="svg_74" height="63.75" width="88.75" y="46.49999" x="1025.37503" stroke="#000" fill="#C48157"/>
  <rect id="svg_75" height="76.875" width="95" y="32.12499" x="1095.37503" stroke="#000" fill="#FFAAB8"/>
  <rect id="svg_76" height="60.625" width="61.25" y="15.24999" x="1077.87503" stroke="#000" fill="#BF7E96"/>
  <rect id="svg_77" height="40" width="57.5" y="45.87499" x="1112.25003" stroke="#000" fill="#D3BEE7"/>
  <rect id="svg_78" height="40" width="55" y="60.87499" x="1051.00003" stroke="#000" fill="#BF7E96"/>
  <rect id="svg_79" height="67.5" width="120.625" y="-9.12501" x="1161.125" stroke="#000" fill="#62612C"/>
  <rect id="svg_80" height="71.875" width="117.5" y="35.24999" x="1155.5" stroke="#000" fill="#B8D078"/>
  <rect id="svg_81" height="54.375" width="102.5" y="20.24999" x="1218.625" stroke="#000" fill="#529D94"/>
  <rect id="svg_82" height="41.25" width="81.25" y="-5.37501" x="1254.25" stroke="#000" fill="#083734"/>
  <rect id="svg_83" height="60.625" width="85" y="62.74999" x="1258.625" stroke="#000" fill="#CBFFFF"/>
  <rect id="svg_84" height="58.125" width="72.5" y="17.74999" x="1300.5" stroke="#000" fill="#535F75"/>
  <rect id="svg_85" height="56.25" width="103.125" y="-3.50001" x="1320.5" stroke="#000" fill="#33666C"/>
  <rect id="svg_86" height="46.25" width="81.875" y="60.87499" x="1339.25" stroke="#000" fill="#153723"/>
  <rect id="svg_87" height="44.375" width="86.875" y="35.87499" x="1368" stroke="#000" fill="#559E84"/>
  <rect id="svg_88" height="69.375" width="115.625" y="-6.62501" x="1417.37499" stroke="#000" fill="#5B9BA2"/>
  <rect id="svg_89" height="51.875" width="166.875" y="-8.50001" x="1445.49999" stroke="#000" fill="#8391AE"/>
  <rect id="svg_90" height="81.875" width="129.375" y="30.87499" x="1490.49999" stroke="#000" fill="#BF7E96"/>
  <rect id="svg_91" height="60.625" width="150" y="48.99999" x="1425.49999" stroke="#000" fill="#AF84A3"/>
  <rect id="svg_92" height="47.5" width="128.75" y="67.12499" x="1385.49999" stroke="#000" fill="#9A8AAB"/>
  <rect id="svg_93" height="60" width="130" y="-2.87501" x="1575.49999" stroke="#000" fill="#845335"/>
  <rect id="svg_94" height="62.5" width="131.25" y="44.62499" x="1531.74999" stroke="#000" fill="#CE7975"/>
  <rect id="svg_95" height="63.75" width="111.25" y="23.99999" x="1624.24999" stroke="#000" fill="#33666C"/>
  <rect id="svg_96" height="48.75" width="121.25" y="69.62499" x="1626.74999" stroke="#000" fill="#B8874D"/>
  <rect id="svg_97" height="50.625" width="140" y="-7.25001" x="1687.99999" stroke="#000" fill="#A0D58A"/>
  <rect id="svg_98" height="49.375" width="161.875" y="28.37499" x="1707.37499" stroke="#000" fill="#306856"/>
  <rect id="svg_99" height="61.875" width="112.5" y="62.74999" x="1717.99999" stroke="#000" fill="#A0D58A"/>
  <rect id="svg_100" height="62.5" width="85" y="44.62499" x="1802.99999" stroke="#000" fill="#B9FFCE"/>
  <rect id="svg_101" height="68.75" width="85.625" y="-2.87501" x="1811.74999" stroke="#000" fill="#B8D078"/>
  <rect id="svg_102" height="40" width="118.75" y="-5.37501" x="1886.99993" stroke="#000" fill="#D1FFB4"/>
  <rect id="svg_103" height="44.375" width="57.5" y="23.37499" x="1886.99993" stroke="#000" fill="#5B9BA2"/>
  <rect id="svg_104" height="60" width="73.125" y="54.62499" x="1868.87493" stroke="#000" fill="#729C62"/>
  <rect id="svg_105" height="44.375" width="87.5" y="33.37499" x="1917.62493" stroke="#000" fill="#3E2A3C"/>
  <rect id="svg_106" height="44.375" width="103.125" y="61.49999" x="1931.37493" stroke="#000" fill="#CC7C65"/>
 </g>
</svg>